/* XPM */
static char *cd804e6ee17447e88255f9d0a4dd1717aU6Ikq6MQYvG2Twu[] = {
/* columns rows colors chars-per-pixel */
"32 32 10 1 ",
"  c #920F0F",
". c #9E1616",
"X c #A51717",
"o c #B01C1C",
"O c #BF2525",
"+ c #AC3232",
"@ c #B83030",
"# c #CB1919",
"$ c #BFB9B9",
"% c #F0BDBD",
/* pixels */
"...........$%...................",
"...........$%...oo..o+++++++####",
".####o@@@@.$%..o@@o++++++++++###",
"####o++++@.$%..@@++++++++++++++#",
"#oo++++++@.$%.@@@++++++++++++++@",
"oo+++++++@.$%.@@@+++++++++++++@@",
"o++++++++@.$%.@@+++++++++++++@@@",
"o+++++++@@.$%.@@@+++++++++++@@OO",
"o+++++++@..$%...@@......+++@@@OO",
"...........$%...................",
"$$$$$$$$$$$$%%%%%%%%%%%%%%%%%%%$",
"%%%%%%%%%%%%%%%%%%%%$$$$$$$$$$$%",
"...............o...%$...........",
"####..ooooooo@@@...%$...o+oooo##",
"###ooooo+++++oo@o..%$..+++++ooo#",
"##oo++++++++++oo@@.%$.++++oooooo",
"ooo++++++++++++oo@.%$..+++oooooo",
"oo+++++++++++++o@@.%$..o+++@@ooo",
"..oo+++++++++@@@@..%$....@@@@ooo",
"o...o..............%$...........",
"$%%%%%%%%%%%%%%%%%%%$$$$$$$$$$$$",
"%$$$$$$$$$$$%%%%%%%%%%%%%%%%%%%%",
"...........$%...................",
"##...@@@...$%................###",
"#o@@+@@@@o.$%...@@oooo++++++@@##",
"oo@++oo@@@.$%..@@@ooo++++++++@@#",
"@@++++oo@..$%.@@oooo+++++++++@XX",
"+++++++o@..$%.@@oo++++++++++@XXX",
"o++++oo@@..$%..@oooo+++++++XXXXo",
"oo+++o@@O..$%..o@@@XXXXXXooooooo",
" oo+oo@@@@.$%.o..o...........ooo",
"..o........%$..................."
};
