/* XPM */
static char *_d84569c26484e5f8592001461711ffeoVPFlmFtyEy9dQdE[] = {
/* columns rows colors chars-per-pixel */
"32 32 15 1 ",
"  c #9A0000",
". c #920F0F",
"X c #9E1616",
"o c #A51111",
"O c #A51717",
"+ c #B01C1C",
"@ c #BF2525",
"# c #AC3232",
"$ c #B83030",
"% c #CB1919",
"& c red",
"* c #BFB9B9",
"= c #F0BDBD",
"- c #ECD8D8",
"; c white",
/* pixels */
"XXXXXXXXXXX*=      XXXXXXXXXXXXX",
"XXXXXXXXXX  o&&&&&&   ######%%%%",
"X%%%%+$$  --&&&&&&&&--  #####%%%",
"%%%%+## -----;;;;;;&---- ######%",
"%++##  ----;;;;;;;;;;----  ####$",
"++## ----;;;;;&&&&;;;;----- ##$$",
"+### ---;;;;--&&&&&&;;;;--- #$$$",
"+## &&;;;------&&&&&&-;;;--- $@@",
"+#o&&;;&-------&&&&&&---;;;-- @@",
"XX &;;&&&&-----&&&&&-----;;;&oXX",
"* &&;&&&&&&----&&&&&-------;&& *",
"= &&&&&&&&&&---&&&&&------&&&& =",
"X &&&&&&&&&&&&--&&&------&&&&& X",
" &&----&&&&&&&&-&&&----&&&&&&&& ",
" ---------&&&&&-&&---&&&&&&&&&& ",
" -----------&&&&&&&&&&&&&&&&&&& ",
" --------------&&&&&&&&&&&&&&&& ",
" ---------&&&&&&&&--&&&&&&&&&&& ",
" -------&&&&&&--&&&---&&&&&&&&& ",
"+ -----&&&&&&---&&&-----&&&&&- X",
"* ----&&&&&&---&&&&&---------- *",
"= ---&&&&&&&---&&&&&---------- =",
"XX --&&&&&&----&&&&&&-------- XX",
"%% -&&&&&&------&&&&&&------- %%",
"%+$o&&&&&&------&&&&&&&&---- $%%",
"++$# &&&&&-------&&&&&&&&&& #$$%",
"$$## &&&&---------&&&&&&&&& #$OO",
"#####  &&----------&&&&&&  #$OOO",
"+####++ &-----------&&&& ##OOOO+",
"++###+$$  -----------&o O+++++++",
".++#++$$$$   ------   XXXXXXX+++",
"XX+XXXXXXXX=*      XXXXXXXXXXXXX"
};
