/* XPM */
static char *_cbd1e7586d94bf1f4b614b1446e65ebDWc29fR14UywoMeI[] = {
/* columns rows colors chars-per-pixel */
"32 32 11 1 ",
"  c #920F0F",
". c #9E1616",
"X c #A51717",
"o c #B01C1C",
"O c #BF2525",
"+ c #AC3232",
"@ c #B83030",
"# c #CB1919",
"$ c #059214",
"% c #BFB9B9",
"& c #F0BDBD",
/* pixels */
"...........%&...................",
"...........%&...o$$$$$++++++####",
".####o@@@@.%&..o@$$$$$+++++++###",
"####o++++@.%&..@@$$$$$+++++++++#",
"#oo++++++@.%&.@@@$$$$$+++++++++@",
"oo+++++++@.%&.@@@$$$$$++++++++@@",
"o++++++++@.%&.@@+++++++++++++@@@",
"o+++++++@@.$$$$$$$$$$$$+++++@@OO",
"o+++++++@$$$$$$$$$$$$$$$$$+@@@OO",
".......$$$$$$$$$$$$$$$$$$$......",
"%%%%%%$$$$$$$$$$$$$$$$$$$$&&&&&%",
"&&&&&&$$$$$$$$$$$$$$$$$$$$%%%%%&",
"......$$$$....$$$$$$$..$$$......",
"####..$$$$ooo@$$$$$$$..$$$$$$$$#",
"###ooo$$$$+++$$$$$$$%..++$$$$$$#",
"##oo++$$$$+++$$$$$$$%.++++$$$$$o",
"ooo+++++++++$$$$$$$$%..+++oooooo",
"oo++++++++++$$$$$$$$$..o+++@@ooo",
"..oo++++++++$$$$$$$$$....@@@@ooo",
"o...o.......$$$$$$$$$...........",
"%&&&&&&&&&&&$$$$$$$$$$%%%%%%%%%%",
"&%%%%%%%%%%$$$$$&$$$$$$&&&&&&&&&",
"......$$$$$$$$$$..$$$$$.........",
"##.$$$$$$$$$$$$$..$$$$$......###",
"#o@$$$$$$$$$$$$$@@$$$$$$$+++@@##",
"oo$$$$$$$$$$$$$@@@oo$$$$$++++@@#",
"@@$$$$$$$$$$$.@@oooo$$$$$++++@XX",
"++$$$++o@..%&.@@oo+++$$$$$++@XXX",
"o+$$$oo@@..%&..@oooo+$$$$$+XXXXo",
"oo+++o@@O..%&..o@@@XX$$$$$oooooo",
" oo+oo@@@@.%&.o..o....$$$$$$.ooo",
"..o........&%.........$$$$$$...."
};
