/* XPM */
static char *_f279b87666a433ca0297604003e51b5zGFJuACmLijWSYD9[] = {
/* columns rows colors chars-per-pixel */
"32 32 12 1 ",
"  c #920F0F",
". c #9E1616",
"X c #A51717",
"o c #B01C1C",
"O c #BF2525",
"+ c #AC3232",
"@ c #B83030",
"# c #CB1919",
"$ c #059214",
"% c #BFB9B9",
"& c #F0BDBD",
"* c white",
/* pixels */
"...........%&...*******.........",
"...........%&...*$$$$$*+++++####",
".####o@@@@.%&..o*$$$$$*++++++###",
"####o++++@.%&..@*$$$$$*++++++++#",
"#oo++++++@.%&.@@*$$$$$*++++++++@",
"oo+++++++@.%&.@@*$$$$$*+++++++@@",
"o++++++++@**************+++++@@@",
"o+++++++***$$$$$$$$$$$$****+@@OO",
"o+++++***$$$$$$$$$$$$$$$$$*@@@OO",
".....**$$$$$$$$$$$$$$$$$$$*.....",
"%%%%%*$$$$$$$$$$$$$$$$$$$$*&&&&%",
"&&&&&*$$$$$$$$$$$$$$$$$$$$*%%%%&",
".....*$$$$****$$$$$$$**$$$******",
"####.*$$$$*o**$$$$$$$**$$$$$$$$*",
"###oo*$$$$*+*$$$$$$$%****$$$$$$*",
"##oo+*$$$$***$$$$$$$%*++**$$$$$*",
"ooo++*******$$$$$$$$%*.++*******",
"oo+++++++++*$$$$$$$$$*.o+++@@ooo",
"..oo+++++++*$$$$$$$$$*...@@@@ooo",
"o...o......*$$$$$$$$$**.........",
"%&&&&&&&&&**$$$$$$$$$$**%%%%%%%%",
"&%%%%******$$$$$*$$$$$$*&&&&&&&&",
"..****$$$$$$$$$$**$$$$$*........",
"##*$$$$$$$$$$$$$**$$$$$***...###",
"#**$$$$$$$$$$$$$**$$$$$$$*++@@##",
"o*$$$$$$$$$$$$$*****$$$$$*+++@@#",
"@*$$$$$$$$$$$***ooo*$$$$$**++@XX",
"+*$$$*********@@oo+**$$$$$*+@XXX",
"o*$$$*o@@..%&..@oooo*$$$$$*XXXXo",
"o*****@@O..%&..o@@@X*$$$$$***ooo",
" oo+oo@@@@.%&.o..o..**$$$$$$*ooo",
"..o........&%........*$$$$$$*..."
};
