/* XPM */
static char *_c5ed1b753354962fcd1ca1486e33710mvT3SyWEsFEdbMxf[] = {
/* columns rows colors chars-per-pixel */
"32 32 25 1 ",
"  c #2B3129",
". c #333830",
"X c #214B10",
"o c #33691D",
"O c #464B44",
"+ c #920F0F",
"@ c #9E1616",
"# c #A51717",
"$ c #B01C1C",
"% c #BF2525",
"& c #AC3232",
"* c #B83030",
"= c #CB1919",
"- c #308F0A",
"; c #33920D",
": c #378F14",
"> c #39961C",
", c #3A971F",
"< c #3BA90F",
"1 c #3C9A23",
"2 c #55963A",
"3 c #4CA926",
"4 c #4DB025",
"5 c #BFB9B9",
"6 c #F0BDBD",
/* pixels */
"@@@@@@@@@OOO6@@@@@@OOOOO@@@@@@@@",
"@OOOOOOOOoooOOOOOOO<1<<<...OOOO=",
"@.<oo<; ;;;22222ooo1<<<<<11111O=",
"=.<;;ooO1;;;;;2o11112222<<<<11O=",
"=.;oo;XXO1;;;:o:;;;;;;2222<<<1O*",
"$.;;;1  O1;;::;;;;OOO;;;;111<<O*",
"$O;;;;ooXOO1:---XOXooO;;;-12<OO*",
"$O;;;;;1<oXO11-XOo--oXO;;--OO<O%",
"$O  4;;;;1<o11-XO---;111;--;;<O%",
"Oooo  ;;;;---11-----11;---;;1<O@",
"Oo;ooX ;;;----11----   ;;1XOOOO5",
"Ooo;;;;;;;;1---111-X O4O1XO2X;.6",
"@Oo;;;;;;;;111111--  --11o222;.@",
"=Oo;;;22221111111-XO--1122221 .=",
"=O;o;22XOo  111114.--------OO22O",
"=.;;22XOooo  11111111----- <<<2O",
"$.;;oXoo3-23o1111111111--333<<1O",
"$.  oo333-21111111111144--33<<; ",
" ;<< ;---22XOO 111111114-333OO.$",
"Oo<;; --22XO<33  1111111-33OX;.@",
"5.;;;;;-2XO<;---< 111111-OO;;;.5",
"6.2;;;;-21XO11---O1112222-;33;.6",
"@.22222222-O 11133O-22  1-3312O@",
"=.22  22--1-;1133111  --O11122O=",
"=Oo << 22---3111112 ----- 122oO=",
"$O <<11 22211111112 --11--O2ooO=",
"*.oo2111X 21>1111122O-11-2 2oXO#",
"&.X2222111-->>>1111111-222ooXoO#",
"$.X2o122111111111111122211oXXoO$",
"$.XX2oo111222211111111ooo1111oO$",
"+OOOOOOOOOO.......OOOOOOOOOOOOO$",
"@@$@@@@@@@@65@@@@@@@@@@@@@@@@@@@"
};
